<!-- Generated by IcoMoon.io -->
<svg version="1.1" xmlns="http://www.w3.org/2000/svg" width="89" height="32" viewBox="0 0 89 32">
<title>arrowright</title>
<path fill="#c8a35f" d="M88.080 14.587c0.361 0.362 0.585 0.861 0.585 1.413s-0.224 1.052-0.585 1.413l-12.727 12.729c-0.362 0.362-0.862 0.586-1.415 0.586-1.105 0-2.001-0.896-2.001-2.001 0-0.552 0.224-1.053 0.586-1.415l11.316-11.313-11.315-11.313c-0.362-0.362-0.586-0.862-0.586-1.415 0-1.105 0.896-2.001 2.001-2.001 0.552 0 1.053 0.224 1.415 0.586l12.728 12.728zM0 14h86.667v4h-86.667v-4z"></path>
</svg>
