<!-- Generated by IcoMoon.io -->
<svg version="1.1" xmlns="http://www.w3.org/2000/svg" width="89" height="32" viewBox="0 0 89 32">
<title>arrowleft</title>
<path fill="#c8a35f" d="M1.253 14.587c-0.361 0.362-0.585 0.861-0.585 1.413s0.224 1.052 0.585 1.413l12.727 12.729c0.362 0.362 0.862 0.586 1.415 0.586 1.105 0 2.001-0.896 2.001-2.001 0-0.552-0.224-1.053-0.586-1.415l-11.316-11.313 11.315-11.313c0.362-0.362 0.586-0.862 0.586-1.415 0-1.105-0.896-2.001-2.001-2.001-0.552 0-1.053 0.224-1.415 0.586l-12.725 12.729zM89.333 14h-86.667v4h86.667v-4z"></path>
</svg>
