<svg aria-hidden="true" style="position: absolute; width: 0; height: 0; overflow: hidden;" version="1.1" xmlns="http://www.w3.org/2000/svg" xmlns:xlink="http://www.w3.org/1999/xlink">
<defs>
<symbol id="logo1" viewBox="0 0 28 32">
<path fill="#c8a35f" style="fill: var(--color1, #c8a35f)" d="M25.546 23.558c-0.458 0.799-0.956 1.489-1.517 2.123l0.012-0.013 0.015 0.016-0.533 0.534c-2.26 2.287-5.397 3.703-8.865 3.703-0.012 0-0.023-0-0.035-0h0.002c-0.010 0-0.021 0-0.033 0-3.454 0-6.58-1.405-8.838-3.675l-0.001-0.001c-2.271-2.258-3.676-5.384-3.676-8.839 0-0.012 0-0.023 0-0.035v0.002c0-0.248 0.007-0.499 0.022-0.749 0.002-0.034 0.003-0.068 0.007-0.104v-0.010l0.005-0.069v-0.012c0.003-0.051 0.009-0.104 0.014-0.155 0.003-0.043 0.007-0.088 0.012-0.134l0.021-0.202c0.005-0.039 0.008-0.083 0.015-0.127l0.022-0.179 0.015-0.102c0.011-0.084 0.021-0.146 0.032-0.207l-0.004 0.026c0.004-0.033 0.011-0.070 0.017-0.106 0.020-0.123 0.034-0.198 0.050-0.273l-0.009 0.050 0.024-0.125c0.010-0.049 0.019-0.097 0.031-0.148 0.072-0.342 0.161-0.685 0.262-1.020l0.003-0.008c0.012-0.045 0.026-0.089 0.041-0.132l0.035-0.114c0.072-0.219 0.151-0.441 0.234-0.654 0.012-0.030 0.024-0.063 0.036-0.093 0.014-0.033 0.025-0.067 0.040-0.103l0.056-0.133c0.013-0.035 0.030-0.074 0.047-0.111l0.007-0.017c0.024-0.051 0.046-0.104 0.070-0.155 0.363-0.795 0.761-1.477 1.218-2.113l-0.025 0.037 0.072-0.097c0.049-0.069 0.099-0.137 0.15-0.202 0.024-0.031 0.049-0.065 0.075-0.097 0.055-0.072 0.111-0.142 0.166-0.21 0.033-0.040 0.065-0.082 0.099-0.122l0.099-0.118c0.033-0.039 0.069-0.080 0.103-0.119l0.118-0.135-1.473-1.475c-2.348 2.572-3.786 6.010-3.786 9.784 0 0.011 0 0.021 0 0.032v-0.002c-0 0.012-0 0.027-0 0.041 0 4.026 1.638 7.67 4.283 10.301l0.001 0.001c2.632 2.646 6.275 4.284 10.302 4.284 0.014 0 0.029-0 0.043-0h-0.002c3.92 0 7.602-1.531 10.367-4.31 0.769-0.771 1.452-1.628 2.035-2.555l0.036-0.061-1.517-1.516z"></path>
<path fill="#fff" style="fill: var(--color2, #fff)" d="M6.826 25.174c1.986 1.996 4.734 3.231 7.771 3.231 0.010 0 0.020 0 0.030-0h-0.002c0.093 0 0.184-0.001 0.277-0.003 0.046 0 0.090-0.001 0.137-0.003h0.007l0.203-0.010 0.162-0.010 0.111-0.008c0.049-0.003 0.099-0.009 0.15-0.014 0.045-0.003 0.086-0.007 0.128-0.012l0.083-0.009 0.056-0.007 0.11-0.013c0.136-0.017 0.27-0.036 0.401-0.058 0.038-0.007 0.073-0.014 0.109-0.018l0.012-0.002 0.086-0.015 0.014-0.003c0.038-0.007 0.075-0.014 0.113-0.022 0.099-0.019 0.196-0.039 0.292-0.061 0.065-0.014 0.129-0.031 0.195-0.047l0.008-0.001c0.020-0.004 0.037-0.008 0.053-0.013l-0.004 0.001c0.049-0.012 0.090-0.024 0.135-0.035 0.038-0.010 0.074-0.018 0.108-0.029 0.031-0.009 0.058-0.015 0.083-0.024 0.026-0.007 0.047-0.012 0.065-0.019l0.015-0.005c0.028-0.007 0.054-0.015 0.082-0.024 0.061-0.017 0.103-0.031 0.144-0.045l0.072-0.022c0.092-0.030 0.184-0.061 0.275-0.093l0.073-0.026 0.019-0.007 0.089-0.033 0.127-0.047c0.034-0.014 0.065-0.024 0.094-0.036 0.056-0.022 0.108-0.042 0.159-0.065l0.154-0.065c0.049-0.021 0.096-0.041 0.141-0.061l0.073-0.033 0.022-0.010 0.113-0.054c0.232-0.111 0.461-0.229 0.682-0.355 0.024-0.014 0.046-0.028 0.070-0.040 0.051-0.029 0.103-0.060 0.152-0.089l0.253-0.155c0.111-0.072 0.227-0.147 0.352-0.232l0.103-0.072 0.014-0.010 0.077-0.055 0.007-0.005 0.056-0.042 0.007-0.004c0.033-0.022 0.063-0.047 0.095-0.070 0.035-0.026 0.070-0.053 0.102-0.079 0.024-0.019 0.042-0.035 0.063-0.049l0.024-0.019c0.035-0.028 0.070-0.055 0.104-0.083l0.106-0.086 0.009-0.007c0.067-0.055 0.131-0.111 0.198-0.168 0.021-0.017 0.039-0.035 0.060-0.053l-1.475-1.476c-1.547 1.325-3.572 2.131-5.785 2.131-0.005 0-0.011 0-0.016 0h0.001c-4.934 0-8.95-4.016-8.95-8.95 0-2.406 0.941-4.663 2.648-6.356 0.785-0.777 1.713-1.411 2.74-1.859l0.058-0.023-1.565-1.565c-1.040 0.546-1.932 1.205-2.71 1.98l0-0c-2.102 2.086-3.258 4.863-3.258 7.822 0 2.947 1.148 5.718 3.231 7.802z"></path>
<path fill="#fff" style="fill: var(--color2, #fff)" d="M27.144 14.626c0-0.012 0-0.026 0-0.041 0-4.026-1.638-7.67-4.283-10.301l-0.001-0.001c-2.633-2.646-6.277-4.284-10.303-4.284-0.014 0-0.029 0-0.043 0h0.002c-3.92 0-7.602 1.529-10.365 4.31-0.769 0.771-1.453 1.628-2.037 2.555l-0.036 0.061 1.519 1.519c0.458-0.799 0.956-1.49 1.516-2.124l-0.012 0.013-0.016-0.015 0.534-0.535c2.26-2.286 5.396-3.702 8.863-3.702 0.012 0 0.024 0 0.037 0h-0.002c3.35 0 6.501 1.305 8.871 3.675 2.27 2.258 3.675 5.383 3.675 8.837 0 0.012-0 0.024-0 0.037v-0.002c0 0.248-0.007 0.501-0.022 0.749-0.001 0.032-0.003 0.068-0.007 0.104l-0.005 0.077v0.012c-0.003 0.051-0.008 0.104-0.014 0.156-0.003 0.042-0.007 0.088-0.012 0.135l-0.021 0.202c-0.005 0.039-0.008 0.081-0.015 0.126l-0.022 0.179-0.015 0.101c-0.007 0.058-0.017 0.12-0.028 0.183-0.005 0.033-0.012 0.070-0.017 0.106-0.006 0.031-0.010 0.061-0.017 0.093-0.023 0.132-0.040 0.218-0.058 0.304l0.009-0.049c-0.095 0.478-0.196 0.871-0.315 1.255l0.023-0.087c-0.014 0.046-0.028 0.094-0.045 0.142l-0.035 0.114c-0.072 0.221-0.151 0.441-0.234 0.654l-0.036 0.091-0.041 0.103-0.054 0.133c-0.014 0.035-0.031 0.074-0.048 0.111l-0.007 0.017-0.070 0.156c-0.363 0.795-0.761 1.477-1.218 2.113l0.025-0.037-0.071 0.097c-0.096 0.132-0.17 0.229-0.245 0.326l0.020-0.026c-0.054 0.072-0.111 0.142-0.166 0.21-0.033 0.039-0.065 0.082-0.099 0.121-0.036 0.045-0.066 0.081-0.097 0.117l0.005-0.006-0.007 0.007c-0.034 0.039-0.068 0.080-0.104 0.12l-0.118 0.135 1.473 1.475c2.349-2.572 3.789-6.011 3.789-9.786 0-0.012 0-0.023-0-0.035v0.002z"></path>
<path fill="#c8a35f" style="fill: var(--color1, #c8a35f)" d="M16.019 22.866l1.565 1.565c1.040-0.546 1.932-1.205 2.71-1.98l-0 0c2.101-2.087 3.256-4.865 3.256-7.824 0-2.946-1.149-5.718-3.231-7.8-1.986-1.997-4.735-3.233-7.773-3.233-0.107 0-0.214 0.002-0.321 0.005l0.016-0c-0.047 0-0.090 0.001-0.137 0.003h-0.005l-0.203 0.010-0.163 0.010-0.073 0.006-0.038 0.003c-0.068 0.005-0.12 0.010-0.171 0.016l0.022-0.002c-0.045 0.005-0.086 0.008-0.128 0.013-0.031 0.003-0.058 0.007-0.083 0.008l-0.043 0.006-0.014 0.001c-0.24 0.029-0.414 0.054-0.587 0.082l0.078-0.011c-0.038 0.007-0.073 0.012-0.109 0.019l-0.012 0.002-0.102 0.019-0.109 0.021c-0.141 0.025-0.24 0.046-0.339 0.070l0.044-0.009c-0.065 0.014-0.13 0.031-0.195 0.046l-0.009 0.001c-0.020 0.004-0.037 0.008-0.053 0.013l0.004-0.001c-0.048 0.013-0.090 0.024-0.135 0.035l-0.108 0.029c-0.031 0.009-0.058 0.015-0.086 0.024l-0.065 0.019-0.015 0.005c-0.089 0.023-0.158 0.045-0.226 0.069l0.019-0.006c-0.011 0.005-0.041 0.014-0.072 0.023l-0.019 0.005c-0.093 0.031-0.185 0.062-0.275 0.094l-0.072 0.026-0.021 0.007c-0.031 0.012-0.058 0.021-0.085 0.033-0.062 0.021-0.105 0.038-0.148 0.056l0.017-0.006-0.094 0.038c-0.088 0.033-0.14 0.055-0.192 0.077l0.033-0.013-0.153 0.065-0.141 0.061c-0.009 0.005-0.034 0.016-0.058 0.027l-0.016 0.006-0.022 0.010c-0.038 0.017-0.076 0.035-0.113 0.053-0.232 0.111-0.461 0.229-0.682 0.355l-0.070 0.040-0.144 0.083-0.159 0.097c-0.033 0.021-0.067 0.043-0.101 0.063-0.113 0.072-0.227 0.147-0.351 0.232-0.032 0.022-0.063 0.045-0.094 0.065l-0.021 0.014c-0.042 0.030-0.068 0.049-0.094 0.068l0.014-0.010-0.010 0.007c-0.017 0.014-0.035 0.025-0.053 0.039l-0.007 0.006c-0.033 0.022-0.063 0.046-0.094 0.070-0.036 0.026-0.069 0.053-0.103 0.079l-0.063 0.049-0.024 0.019-0.104 0.083c-0.039 0.031-0.077 0.064-0.114 0.095-0.1 0.082-0.184 0.154-0.267 0.228l0.008-0.007 1.476 1.476c1.547-1.325 3.573-2.132 5.787-2.132 0.004 0 0.009 0 0.013 0h-0.001c4.935 0 8.95 4.015 8.95 8.95 0 2.406-0.941 4.663-2.648 6.356-0.785 0.775-1.712 1.408-2.739 1.857l-0.058 0.023z"></path>
</symbol>
<symbol id="logo2" viewBox="0 0 160 32">
<path fill="#fff" style="fill: var(--color2, #fff)" d="M11.52 26.524l-0.893 2.698h1.804l-0.892-2.698h-0.019zM12.812 11.273c-0.305 1.357-0.884 2.393-1.719 3.105-0.855 0.684-1.891 1.036-3.124 1.036-0.002 0-0.005 0-0.008 0-1.037 0-2.008-0.283-2.84-0.775l0.026 0.014c-0.854-0.503-1.489-1.281-1.889-2.317-0.436-1.036-0.636-2.269-0.636-3.657 0-1.082 0.18-2.145 0.532-3.152 0.341-1 0.967-1.828 1.78-2.412l0.015-0.010c0.854-0.579 1.937-0.883 3.2-0.883 1.111 0 2.013 0.256 2.745 0.807 0.73 0.531 1.281 1.386 1.661 2.573l0.048 0.124 2.527-0.579-0.048-0.153c-0.476-1.567-1.311-2.801-2.497-3.684-1.187-0.855-2.65-1.281-4.387-1.281-1.511 0-2.925 0.332-4.218 1.007-1.263 0.707-2.269 1.741-2.922 2.988l-0.019 0.040c-0.685 1.311-1.037 2.868-1.037 4.615 0 1.615 0.304 3.153 0.912 4.54 0.608 1.415 1.51 2.527 2.697 3.258 1.159 0.759 2.697 1.139 4.567 1.139 1.795 0 3.334-0.503 4.588-1.462 1.263-0.96 2.118-2.394 2.602-4.236l0.048-0.153-2.545-0.625-0.058 0.131zM35.916 1.139c-1.29-0.759-2.752-1.139-4.337-1.139-2.451 0-4.464 0.807-6.003 2.393-1.537 1.585-2.317 3.837-2.317 6.63 0 1.491 0.333 2.895 1.007 4.234 0.656 1.34 1.644 2.394 2.925 3.183 1.283 0.778 2.755 1.158 4.359 1.158 1.51 0 2.925-0.351 4.208-1.063 1.309-0.684 2.317-1.738 3.047-3.105 0.703-1.338 1.065-2.896 1.065-4.615 0-1.69-0.352-3.2-1.007-4.54-0.673-1.321-1.68-2.388-2.912-3.115l-0.035-0.019zM35.641 13.695c-1.063 1.13-2.449 1.719-4.083 1.719-1.615 0-2.973-0.58-4.065-1.692-1.062-1.139-1.615-2.697-1.615-4.662 0-2.451 0.58-4.236 1.692-5.271 1.023-0.97 2.409-1.567 3.934-1.567 0.026 0 0.051 0 0.077 0.001l-0.004-0c1.111 0 2.089 0.276 2.972 0.807 0.874 0.556 1.559 1.338 1.982 2.265l0.013 0.033c0.455 0.988 0.684 2.164 0.684 3.504 0 2.089-0.532 3.732-1.585 4.863zM61.919 0.732l-4.065 11.574c-0.332 0.931-0.579 1.663-0.759 2.241l-0.684-2.013-4.055-11.956h-0.276v6.182l3.761 10.847h2.241l3.837-10.826v-6.049zM51.168 0.579h-2.468v17.028h2.468v-17.028zM65.271 0.579h-2.451v17.028h2.451v-17.028zM76.647 0.579h-2.545v17.028h2.545v-17.028zM86.884 3.229c-0.378-0.703-0.835-1.283-1.433-1.663-0.58-0.407-1.311-0.684-2.147-0.807-0.608-0.124-1.491-0.18-2.621-0.18h-3.124v2.269h3.305c1.007 0 1.69 0.048 2.070 0.153 0.553 0.153 1.007 0.455 1.34 0.931 0.352 0.474 0.503 1.036 0.503 1.719 0 0.911-0.276 1.615-0.854 2.118-0.58 0.503-1.585 0.759-3.002 0.759h-3.35v2.298h3.332c2.422 0 4.16-0.532 5.091-1.539 0.96-1.007 1.434-2.24 1.434-3.703 0-0.004 0-0.008 0-0.012 0-0.853-0.2-1.66-0.557-2.375l0.014 0.031zM102.896 0.579l-6.656 17.028h2.697l0.759-1.994h-0.029l1.92-5.167 0.407-1.063 1.415-3.761h0.029c0.303-0.835 0.55-1.69 0.759-2.527 0.256 0.807 0.608 1.795 1.036 2.897l1.718 4.435h-4.359l-0.778 2.089h5.955l1.993 5.072h2.897l-7.113-17.028h-2.652v0.019zM123.59 0.579h-2.374v17.028h2.374v-17.028zM132.46 13.372l-0.048-0.077v4.313h2.516v-17.028h-2.468v12.793zM124.492 6.031l7.009 10.284v-4.358l-7.009-10.266v4.34zM156.97 0.579l-3.351 4.995c-0.656 0.989-1.235 1.92-1.738 2.726v-0.029l-1.415 2.147v7.19h2.573v-7.19l6.932-9.839h-3.001zM151.348 7.389l-1.055-1.692-3.408-5.119h-3.124l6.153 9.033 1.434-2.224zM0 26.097h1.69v5.337h0.941v-5.338h1.689v-0.835h-4.32v0.836z"></path>
<path fill="#fff" style="fill: var(--color2, #fff)" d="M11.139 25.261l-2.24 6.173h0.988l0.474-1.377h2.346l0.474 1.377h0.989l-2.243-6.173h-0.788zM10.627 29.222l0.893-2.698h0.019l0.892 2.698h-1.804zM21.871 28.916h1.254v0.324c-0.009 0.388-0.124 0.703-0.361 0.94-0.219 0.229-0.528 0.371-0.869 0.371-0.011 0-0.023-0-0.034-0l0.002 0c-0.008 0-0.017 0-0.027 0-0.2 0-0.387-0.053-0.549-0.146l0.005 0.003c-0.158-0.072-0.289-0.179-0.388-0.312l-0.002-0.003c-0.124-0.141-0.21-0.32-0.236-0.517l-0.001-0.005c-0.048-0.218-0.067-0.625-0.067-1.235 0-0.608 0.019-1.015 0.067-1.244 0.034-0.198 0.118-0.371 0.238-0.514l-0.001 0.002c0.103-0.133 0.233-0.239 0.383-0.311l0.006-0.003c0.167-0.083 0.363-0.131 0.57-0.132h0c0.287 0.002 0.55 0.098 0.762 0.258l-0.003-0.002c0.193 0.165 0.338 0.381 0.415 0.626l0.003 0.010h0.989c-0.093-0.519-0.349-0.966-0.711-1.299l-0.002-0.002c-0.381-0.352-0.865-0.524-1.455-0.532-0.483 0.010-0.892 0.124-1.215 0.352-0.333 0.218-0.57 0.474-0.721 0.759-0.1 0.17-0.174 0.368-0.208 0.579l-0.001 0.010c-0.038 0.247-0.067 0.721-0.067 1.443 0 0.703 0.020 1.188 0.067 1.434 0.019 0.134 0.048 0.247 0.086 0.333s0.076 0.17 0.124 0.266c0.151 0.284 0.39 0.531 0.721 0.749 0.323 0.228 0.732 0.342 1.216 0.352 0.004 0 0.009 0 0.014 0 0.605 0 1.154-0.243 1.553-0.637l-0 0c0.407-0.417 0.625-0.931 0.636-1.556v-1.254h-2.193v0.893zM31.292 25.261h-0.931v6.173h3.942v-0.883h-3.011v-5.29zM41.319 25.261h-0.931v6.173h0.931v-6.173zM51.51 29.648h-0.009l-2.801-4.387h-0.874v6.173h0.931v-4.388h0.019l2.793 4.388h0.881v-6.173h-0.94v4.387zM58.956 31.433h3.942v-0.881h-3.002v-1.815h2.564v-0.825h-2.564v-1.767h3.001v-0.883h-3.942v6.173zM78.262 28.916h1.254v0.324c-0.010 0.388-0.124 0.703-0.361 0.94-0.219 0.229-0.528 0.371-0.869 0.371-0.011 0-0.023-0-0.034-0l0.002 0c-0.008 0-0.017 0-0.027 0-0.2 0-0.387-0.053-0.549-0.146l0.005 0.003c-0.158-0.072-0.289-0.179-0.388-0.312l-0.002-0.003c-0.124-0.141-0.21-0.32-0.237-0.517l-0.001-0.005c-0.048-0.218-0.067-0.625-0.067-1.235 0-0.608 0.019-1.015 0.067-1.244 0.034-0.198 0.118-0.371 0.238-0.514l-0.001 0.002c0.103-0.133 0.233-0.239 0.383-0.311l0.006-0.003c0.165-0.085 0.359-0.134 0.566-0.134 0.288 0 0.554 0.097 0.767 0.26l-0.003-0.002c0.193 0.165 0.338 0.381 0.415 0.626l0.003 0.010h0.989c-0.093-0.519-0.349-0.966-0.711-1.299l-0.002-0.002c-0.371-0.352-0.865-0.524-1.455-0.532-0.483 0.010-0.892 0.124-1.215 0.352-0.333 0.218-0.57 0.474-0.721 0.759-0.096 0.153-0.161 0.342-0.209 0.589-0.038 0.247-0.067 0.721-0.067 1.443 0 0.703 0.020 1.188 0.067 1.434 0.019 0.134 0.048 0.247 0.086 0.333s0.076 0.17 0.124 0.266c0.151 0.284 0.388 0.531 0.721 0.749 0.323 0.228 0.732 0.342 1.216 0.352 0.004 0 0.009 0 0.014 0 0.605 0 1.154-0.243 1.553-0.637l-0 0c0.407-0.417 0.625-0.931 0.636-1.556v-1.254h-2.193v0.893zM90.675 26.316c-0.169-0.313-0.408-0.569-0.696-0.754l-0.008-0.005c-0.332-0.228-0.74-0.343-1.225-0.352-0.484 0.009-0.892 0.124-1.215 0.352-0.333 0.218-0.57 0.474-0.723 0.759-0.1 0.17-0.173 0.368-0.207 0.579l-0.001 0.010c-0.038 0.247-0.067 0.721-0.067 1.443 0 0.703 0.019 1.187 0.067 1.434 0.019 0.132 0.047 0.247 0.084 0.332 0.039 0.087 0.077 0.172 0.124 0.266 0.153 0.285 0.39 0.532 0.723 0.751 0.323 0.228 0.73 0.342 1.215 0.351 0.495-0.009 0.902-0.131 1.225-0.351 0.323-0.218 0.561-0.465 0.704-0.751 0.112-0.17 0.189-0.373 0.217-0.591l0.001-0.007c0.038-0.247 0.057-0.721 0.057-1.434s-0.019-1.197-0.058-1.443c-0.031-0.222-0.108-0.421-0.222-0.595l0.003 0.005zM89.943 29.583c-0.040 0.201-0.127 0.378-0.249 0.524l0.001-0.002c-0.101 0.127-0.224 0.232-0.365 0.31l-0.006 0.003c-0.159 0.090-0.35 0.143-0.552 0.143-0.009 0-0.019-0-0.028-0l0.001 0c-0.008 0-0.017 0-0.027 0-0.2 0-0.387-0.053-0.549-0.146l0.005 0.003c-0.157-0.072-0.288-0.178-0.386-0.31l-0.002-0.003c-0.125-0.142-0.21-0.321-0.237-0.519l-0.001-0.005c-0.048-0.218-0.067-0.625-0.067-1.233s0.019-1.017 0.065-1.244c0.034-0.198 0.119-0.373 0.24-0.515l-0.001 0.002c0.103-0.132 0.233-0.238 0.382-0.31l0.006-0.003c0.166-0.083 0.362-0.132 0.57-0.134h0.001c0.218 0.010 0.419 0.048 0.579 0.134 0.153 0.084 0.276 0.189 0.371 0.313 0.126 0.138 0.214 0.314 0.246 0.508l0.001 0.006c0.038 0.218 0.067 0.636 0.067 1.244s-0.020 1.017-0.067 1.235zM97.236 31.433h3.942v-0.881h-3.002v-1.815h2.564v-0.825h-2.564v-1.767h3.002v-0.883h-3.942v6.173zM109.564 27.911c-0.295-0.038-0.524-0.067-0.694-0.096-0.304-0.057-0.522-0.16-0.665-0.304-0.129-0.121-0.209-0.293-0.209-0.484 0-0 0-0 0-0.001v0c0.010-0.294 0.105-0.522 0.314-0.663 0.189-0.144 0.436-0.218 0.721-0.218 0.56 0.009 1.063 0.17 1.529 0.474l0.524-0.771c-0.552-0.397-1.242-0.636-1.988-0.636-0.006 0-0.012 0-0.018 0h0.001c-0.637 0.010-1.13 0.172-1.482 0.503-0.361 0.333-0.541 0.771-0.541 1.302 0 0.447 0.143 0.826 0.428 1.14 0.276 0.303 0.684 0.502 1.216 0.588 0.294 0.038 0.569 0.076 0.816 0.115 0.541 0.095 0.807 0.369 0.807 0.826-0.009 0.56-0.417 0.844-1.216 0.854-0.673-0.009-1.263-0.208-1.757-0.617l-0.617 0.703c0.655 0.56 1.443 0.845 2.356 0.845 1.414-0.019 2.135-0.617 2.164-1.795 0-0.436-0.134-0.816-0.407-1.149-0.276-0.323-0.704-0.532-1.283-0.617zM128.102 27.911h-2.444v-2.65h-0.94v6.173h0.94v-2.698h2.441v2.698h0.941v-6.173h-0.941v2.65zM135.546 31.433h3.942v-0.881h-3.011v-1.815h2.564v-0.825h-2.564v-1.767h3.011v-0.883h-3.942v6.173zM149.849 26.98c-0.020-0.57-0.22-1.007-0.618-1.321-0.323-0.275-0.74-0.407-1.254-0.407h-2.412v6.172h0.94v-2.639h1.197l1.273 2.64h1.111l-1.434-2.735c0.788-0.294 1.187-0.864 1.197-1.709zM146.505 27.968v-1.871h1.463c0.294 0 0.531 0.065 0.684 0.189 0.199 0.143 0.304 0.38 0.313 0.703 0 0.008 0 0.018 0 0.028 0 0.251-0.098 0.479-0.257 0.648l0-0c-0.17 0.199-0.436 0.304-0.788 0.304h-1.415zM156.058 31.433h3.942v-0.881h-3.011v-1.815h2.564v-0.825h-2.564v-1.767h3.011v-0.883h-3.942v6.173z"></path>
</symbol>
<symbol id="placeholder" viewBox="0 0 32 32">
<path d="M15.978 0c-6.468 0-11.729 5.261-11.729 11.727 0 2.971 1.873 7.168 5.564 12.476 1.85 2.64 3.644 4.923 5.549 7.107l-0.085-0.099 0.7 0.788 0.699-0.788c1.821-2.085 3.615-4.368 5.289-6.743l0.177-0.265c3.692-5.308 5.563-9.505 5.563-12.476 0-6.467-5.261-11.727-11.727-11.727zM20.617 23.119c-1.615 2.299-3.137 4.265-4.741 6.16l0.103-0.124c-1.498-1.766-3.017-3.727-4.45-5.754l-0.178-0.266c-3.421-4.918-5.229-8.861-5.229-11.407 0-5.435 4.421-9.856 9.856-9.856 5.436 0 9.857 4.421 9.857 9.856 0 2.542-1.805 6.482-5.217 11.392z"></path>
<path d="M15.978 4.334c-3.821 0.004-6.918 3.101-6.922 6.922v0c0.005 3.821 3.101 6.917 6.922 6.921h0c3.82-0.005 6.916-3.101 6.921-6.92v-0.001c-0.004-3.821-3.1-6.917-6.92-6.922h-0.001zM15.978 16.307c-2.788-0.003-5.048-2.263-5.051-5.051v-0c0.003-2.788 2.263-5.048 5.051-5.051h0c2.788 0.003 5.048 2.263 5.051 5.051v0c-0.003 2.788-2.263 5.048-5.051 5.051h-0z"></path>
</symbol>
<symbol id="airplane" viewBox="0 0 32 32">
<path fill="#fff" style="fill: var(--color2, #fff)" d="M30.819 0.078l-3.387 1.541c-0.217 0.1-0.416 0.237-0.587 0.407l-5.519 5.521-19.002-2.278c-0.040-0.005-0.087-0.008-0.135-0.008-0.312 0-0.594 0.127-0.799 0.331v0l-1.058 1.058c-0.205 0.205-0.331 0.487-0.331 0.8 0 0.457 0.271 0.851 0.661 1.029l0.007 0.003 13.618 6.105-3.909 3.91h-6.831c-0.3 0-0.587 0.119-0.8 0.331l-0.571 0.573c-0.205 0.205-0.332 0.488-0.332 0.8 0 0.463 0.279 0.861 0.677 1.036l0.007 0.003 5.762 2.468 2.468 5.762c0.178 0.406 0.576 0.685 1.039 0.685 0.312 0 0.595-0.127 0.8-0.332l0.573-0.574c0.213-0.213 0.331-0.5 0.331-0.8v-6.83l3.91-3.909 6.105 13.621c0.181 0.397 0.575 0.668 1.032 0.668 0.312 0 0.595-0.127 0.8-0.331l1.058-1.058c0.246-0.246 0.363-0.59 0.323-0.933l-2.283-19.003 5.522-5.522c0.171-0.171 0.307-0.367 0.407-0.587l1.541-3.387c0.323-0.697-0.398-1.421-1.101-1.101z"></path>
</symbol>
<symbol id="arrowleft" viewBox="0 0 89 32">
<path fill="#c8a35f" style="fill: var(--color1, #c8a35f)" d="M1.253 14.587c-0.361 0.362-0.585 0.861-0.585 1.413s0.224 1.052 0.585 1.413l12.727 12.729c0.362 0.362 0.862 0.586 1.415 0.586 1.105 0 2.001-0.896 2.001-2.001 0-0.552-0.224-1.053-0.586-1.415l-11.316-11.313 11.315-11.313c0.362-0.362 0.586-0.862 0.586-1.415 0-1.105-0.896-2.001-2.001-2.001-0.552 0-1.053 0.224-1.415 0.586l-12.725 12.729zM89.333 14h-86.667v4h86.667v-4z"></path>
</symbol>
<symbol id="arrowright" viewBox="0 0 89 32">
<path fill="#c8a35f" style="fill: var(--color1, #c8a35f)" d="M88.080 14.587c0.361 0.362 0.585 0.861 0.585 1.413s-0.224 1.052-0.585 1.413l-12.727 12.729c-0.362 0.362-0.862 0.586-1.415 0.586-1.105 0-2.001-0.896-2.001-2.001 0-0.552 0.224-1.053 0.586-1.415l11.316-11.313-11.315-11.313c-0.362-0.362-0.586-0.862-0.586-1.415 0-1.105 0.896-2.001 2.001-2.001 0.552 0 1.053 0.224 1.415 0.586l12.728 12.728zM0 14h86.667v4h-86.667v-4z"></path>
</symbol>
</defs>
</svg>
